<svg width="33" height="32" viewBox="0 0 33 32" fill="none" xmlns="http://www.w3.org/2000/svg">
<g id="medium">
<path id="Vector" d="M9.99341 24C14.4117 24 17.9934 20.4183 17.9934 16C17.9934 11.5817 14.4117 8 9.99341 8C5.57513 8 1.99341 11.5817 1.99341 16C1.99341 20.4183 5.57513 24 9.99341 24Z" fill="#424242"/>
<path id="Vector_2" d="M23.3267 23.3332C25.5358 23.3332 27.3267 20.0499 27.3267 15.9998C27.3267 11.9497 25.5358 8.6665 23.3267 8.6665C21.1175 8.6665 19.3267 11.9497 19.3267 15.9998C19.3267 20.0499 21.1175 23.3332 23.3267 23.3332Z" fill="#424242"/>
<path id="Vector_3" d="M29.9934 22.6668C30.7297 22.6668 31.3267 19.6821 31.3267 16.0002C31.3267 12.3183 30.7297 9.3335 29.9934 9.3335C29.257 9.3335 28.66 12.3183 28.66 16.0002C28.66 19.6821 29.257 22.6668 29.9934 22.6668Z" fill="#424242"/>
</g>
</svg>
